<?xml version="1.0" encoding="UTF-8" standalone="no"?>
<svg
   xmlns:dc="http://purl.org/dc/elements/1.1/"
   xmlns:cc="http://creativecommons.org/ns#"
   xmlns:rdf="http://www.w3.org/1999/02/22-rdf-syntax-ns#"
   xmlns:svg="http://www.w3.org/2000/svg"
   xmlns="http://www.w3.org/2000/svg"
   xmlns:sodipodi="http://sodipodi.sourceforge.net/DTD/sodipodi-0.dtd"
   xmlns:inkscape="http://www.inkscape.org/namespaces/inkscape"
   width="64"
   height="64"
   version="1.1"
   viewBox="0 0 64 64"
   id="svg18"
   sodipodi:docname="android-studio.svg"
   inkscape:version="">
  <metadata
     id="metadata24">
    <rdf:RDF>
      <cc:Work
         rdf:about="">
        <dc:format>image/svg+xml</dc:format>
        <dc:type
           rdf:resource="http://purl.org/dc/dcmitype/StillImage" />
        <dc:title></dc:title>
      </cc:Work>
    </rdf:RDF>
  </metadata>
  <defs
     id="defs22" />
  <sodipodi:namedview
     pagecolor="#ffffff"
     bordercolor="#666666"
     borderopacity="1"
     objecttolerance="10"
     gridtolerance="10"
     guidetolerance="10"
     inkscape:pageopacity="0"
     inkscape:pageshadow="2"
     inkscape:window-width="1866"
     inkscape:window-height="1974"
     id="namedview20"
     showgrid="false"
     inkscape:zoom="3.6875"
     inkscape:cx="32.542373"
     inkscape:cy="32"
     inkscape:window-x="38"
     inkscape:window-y="22"
     inkscape:window-maximized="0"
     inkscape:current-layer="svg18" />
  <g
     transform="matrix(1.4444 0 0 1.4444 -2.6667 -1454.4)"
     stroke-width=".69231"
     id="g16">
    <circle
       cx="24.001"
       cy="1029.1"
       r="18.693"
       fill="#55a73e"
       stroke-width=".69231"
       id="circle2" />
    <circle
       cx="24.001"
       cy="1029.1"
       r="15.231"
       opacity=".15"
       id="circle4" />
    <path
       d="m23.298 1021.6-2.5981 1.5 13.5 23.383 2.799 1.848-0.20091-3.348z"
       fill="#ececec"
       id="path6" />
    <path
       d="m35 1026.4c0 4.0083-1.1911 4.9591-2.6407 6.6529-0.74918 0.8632-1.6287 1.5961-2.6384 2.1498-1.3681 0.7655-3.448 1.189-5.1256 1.189-1.6775 0-3.2573-0.4398-4.6091-1.189-0.98621-0.7944-2.9862 2.2056-1.6612 2.5989 1.8567 1.0424 4.0065 1.6067 6.2866 1.6067s4.9301-0.5643 6.7868-1.6067c0.99349-0.5537 1.9055-1.2377 2.7036-2.0195 2.4104-2.3453 3.9251-5.7336 3.9251-9.3655-1.0284-0.01-2.1151 0-3.0271-0.01z"
       fill="#ccc"
       stroke-width=".69231"
       id="path8" />
    <path
       d="m24.701 1021.6 2.5981 1.5-13.5 23.383-2.799 1.848 0.20091-3.348z"
       fill="#ccc"
       id="path10" />
    <path
       d="m27.114 1021.4h-1.1138v-3.0002h-4v3.0002h-1.1301c-1.0244 0-1.8699 0.8465-1.8699 1.8592v4.8955h0.01627c-0.01627 0.1608 0.08127 0.3377 0.29268 0.5466l3.7561 3.3129c0.26016 0.2572 0.60163 0.3858 0.92683 0.3858v-0.016l0.01627 0.016c0.34146 0 0.68292-0.1286 0.92683-0.3858l3.7561-3.3129c0.21138-0.2089 0.29268-0.4019 0.29268-0.5466h0.01627v-4.8794c-0.01627-1.0287-0.84553-1.8753-1.8862-1.8753z"
       fill="#363c3e"
       stroke-width=".69231"
       id="path12" />
    <path
       d="m24.007 1027.4h-0.01304c-1.0945 0-1.9935-0.8902-1.9935-1.9867 0-1.0966 0.89902-1.9868 1.9935-1.9868v-0.026l0.01304 0.026c1.0945 0.013 1.9935 0.8902 1.9935 1.9868 0 1.0965-0.89902 1.9738-1.9935 1.9867z"
       fill="#fff"
       stroke-width=".69231"
       id="path14" />
  </g>
</svg>
