<?xml version="1.0" encoding="UTF-8" standalone="no"?>
<svg
   xmlns:dc="http://purl.org/dc/elements/1.1/"
   xmlns:cc="http://creativecommons.org/ns#"
   xmlns:rdf="http://www.w3.org/1999/02/22-rdf-syntax-ns#"
   xmlns:svg="http://www.w3.org/2000/svg"
   xmlns="http://www.w3.org/2000/svg"
   xmlns:xlink="http://www.w3.org/1999/xlink"
   xmlns:sodipodi="http://sodipodi.sourceforge.net/DTD/sodipodi-0.dtd"
   xmlns:inkscape="http://www.inkscape.org/namespaces/inkscape"
   width="64"
   height="64"
   version="1.1"
   viewBox="0 0 16.933 16.933"
   id="svg23"
   sodipodi:docname="file-manager.svg"
   inkscape:version="">
  <metadata
     id="metadata27">
    <rdf:RDF>
      <cc:Work
         rdf:about="">
        <dc:format>image/svg+xml</dc:format>
        <dc:type
           rdf:resource="http://purl.org/dc/dcmitype/StillImage" />
        <dc:title></dc:title>
      </cc:Work>
    </rdf:RDF>
  </metadata>
  <sodipodi:namedview
     pagecolor="#ffffff"
     bordercolor="#666666"
     borderopacity="1"
     objecttolerance="10"
     gridtolerance="10"
     guidetolerance="10"
     inkscape:pageopacity="0"
     inkscape:pageshadow="2"
     inkscape:window-width="1866"
     inkscape:window-height="1974"
     id="namedview25"
     showgrid="false"
     inkscape:zoom="3.6875"
     inkscape:cx="32.542373"
     inkscape:cy="32"
     inkscape:window-x="38"
     inkscape:window-y="22"
     inkscape:window-maximized="0"
     inkscape:current-layer="svg23" />
  <defs
     id="defs9">
    <linearGradient
       id="b">
      <stop
         offset="0"
         id="stop2" />
      <stop
         stop-opacity="0"
         offset="1"
         id="stop4" />
    </linearGradient>
    <linearGradient
       id="c"
       x1="32"
       x2="32"
       y1="13"
       y2="9"
       gradientTransform="scale(.26458)"
       gradientUnits="userSpaceOnUse"
       xlink:href="#b" />
    <linearGradient
       id="a"
       x1="30"
       x2="57"
       y1="44"
       y2="44"
       gradientUnits="userSpaceOnUse"
       xlink:href="#b" />
  </defs>
  <circle
     cx="8.4665"
     cy="8.4665"
     r="6.6145"
     fill="#3578c7"
     style="paint-order:stroke markers fill"
     id="circle11" />
  <path
     transform="scale(.26458)"
     d="m19.398 14a22 22 0 0 0-9.3984 18 22 22 0 0 0 22 22 22 22 0 0 0 22-22 22 22 0 0 0-9.3711-18z"
     fill="#fff"
     stroke-width="3.7796"
     style="paint-order:stroke markers fill"
     id="path13" />
  <path
     d="m8.4665 1.852a6.6145 6.6145 0 0 0-3.9444 1.3229h7.8976a6.6145 6.6145 0 0 0-3.9532-1.3229z"
     fill="url(#c)"
     opacity=".15"
     style="paint-order:stroke markers fill"
     id="path15" />
  <path
     d="m8.466 4.2332c-0.29211 6.879e-4 -0.38134 0.27599-0.52916 0.52967l-0.30799 0.52812-5.5525 5.167e-4a7.1436 7.1436 0 0 0-0.75343 3.1749 7.1436 7.1436 0 0 0 7.1436 7.1436 7.1436 7.1436 0 0 0 7.1436-7.1436 7.1436 7.1436 0 0 0-1.3999-4.2332h-5.7432z"
     fill="#5294e2"
     style="paint-order:stroke markers fill"
     id="path17" />
  <rect
     x="9.2599"
     y="4.762"
     width="3.969"
     height=".529"
     ry=".265"
     opacity=".25"
     style="paint-order:stroke markers fill"
     id="rect19" />
  <path
     transform="scale(.26458)"
     d="m59 32-27 27a27 27 0 0 0 27-27z"
     fill="url(#a)"
     opacity=".15"
     stroke-width="3.7796"
     style="paint-order:stroke markers fill"
     id="path21" />
</svg>
