<?xml version="1.0" encoding="UTF-8" standalone="no"?>
<svg
   xmlns:dc="http://purl.org/dc/elements/1.1/"
   xmlns:cc="http://creativecommons.org/ns#"
   xmlns:rdf="http://www.w3.org/1999/02/22-rdf-syntax-ns#"
   xmlns:svg="http://www.w3.org/2000/svg"
   xmlns="http://www.w3.org/2000/svg"
   xmlns:sodipodi="http://sodipodi.sourceforge.net/DTD/sodipodi-0.dtd"
   xmlns:inkscape="http://www.inkscape.org/namespaces/inkscape"
   width="64"
   height="64"
   version="1.1"
   id="svg14"
   sodipodi:docname="slack-grey.svg"
   inkscape:version="">
  <metadata
     id="metadata20">
    <rdf:RDF>
      <cc:Work
         rdf:about="">
        <dc:format>image/svg+xml</dc:format>
        <dc:type
           rdf:resource="http://purl.org/dc/dcmitype/StillImage" />
        <dc:title></dc:title>
      </cc:Work>
    </rdf:RDF>
  </metadata>
  <defs
     id="defs18" />
  <sodipodi:namedview
     pagecolor="#ffffff"
     bordercolor="#666666"
     borderopacity="1"
     objecttolerance="10"
     gridtolerance="10"
     guidetolerance="10"
     inkscape:pageopacity="0"
     inkscape:pageshadow="2"
     inkscape:window-width="1866"
     inkscape:window-height="1974"
     id="namedview16"
     showgrid="false"
     inkscape:zoom="3.6875"
     inkscape:cx="32.542373"
     inkscape:cy="32"
     inkscape:window-x="38"
     inkscape:window-y="22"
     inkscape:window-maximized="0"
     inkscape:current-layer="svg14" />
  <rect
     x="5"
     y="5"
     width="54"
     height="54"
     ry="27"
     fill="#c4c4c4"
     stroke-width=".9104"
     id="rect2" />
  <g
     stroke-width="1.3043"
     id="g12">
    <path
       id="path4"
       fill="#6e6e6e"
       d="m36.565 15.043a3.2609 3.2609 0 0 0-3.2609 3.2609v9.1304a3.2609 3.2609 0 0 0 3.2609 3.2609 3.2609 3.2609 0 0 0 3.2609-3.2609v-9.1304a3.2609 3.2609 0 0 0-3.2609-3.2609zm9.1304 9.1304a3.2609 3.2609 0 0 0-3.2609 3.2609v3.2609h3.2609a3.2609 3.2609 0 0 0 3.2609-3.2609 3.2609 3.2609 0 0 0-3.2609-3.2609z" />
    <path
       id="path6"
       fill="#929292"
       d="m48.957 36.565a3.2609 3.2609 0 0 0-3.2609-3.2609h-9.1304a3.2609 3.2609 0 0 0-3.2609 3.2609 3.2609 3.2609 0 0 0 3.2609 3.2609h9.1304a3.2609 3.2609 0 0 0 3.2609-3.2609zm-9.1304 9.1304a3.2609 3.2609 0 0 0-3.2609-3.2609h-3.2609v3.2609a3.2609 3.2609 0 0 0 3.2609 3.2609 3.2609 3.2609 0 0 0 3.2609-3.2609z" />
    <path
       id="path8"
       fill="#4f4f4f"
       d="m27.435 48.957a3.2609 3.2609 0 0 0 3.2609-3.2609v-9.1304a3.2609 3.2609 0 0 0-3.2609-3.2609 3.2609 3.2609 0 0 0-3.2609 3.2609v9.1304a3.2609 3.2609 0 0 0 3.2609 3.2609zm-9.1304-9.1304a3.2609 3.2609 0 0 0 3.2609-3.2609v-3.2609h-3.2609a3.2609 3.2609 0 0 0-3.2609 3.2609 3.2609 3.2609 0 0 0 3.2609 3.2609z" />
    <path
       id="path10"
       fill="#818181"
       d="m15.043 27.435a3.2609 3.2609 0 0 0 3.2609 3.2609h9.1304a3.2609 3.2609 0 0 0 3.2609-3.2609 3.2609 3.2609 0 0 0-3.2609-3.2609h-9.1304a3.2609 3.2609 0 0 0-3.2609 3.2609zm9.1304-9.1304a3.2609 3.2609 0 0 0 3.2609 3.2609h3.2609v-3.2609a3.2609 3.2609 0 0 0-3.2609-3.2609 3.2609 3.2609 0 0 0-3.2609 3.2609z" />
  </g>
</svg>
