<?xml version="1.0" encoding="UTF-8" standalone="no"?>
<svg
   xmlns:dc="http://purl.org/dc/elements/1.1/"
   xmlns:cc="http://creativecommons.org/ns#"
   xmlns:rdf="http://www.w3.org/1999/02/22-rdf-syntax-ns#"
   xmlns:svg="http://www.w3.org/2000/svg"
   xmlns="http://www.w3.org/2000/svg"
   xmlns:sodipodi="http://sodipodi.sourceforge.net/DTD/sodipodi-0.dtd"
   xmlns:inkscape="http://www.inkscape.org/namespaces/inkscape"
   width="64"
   height="64"
   version="1.1"
   viewBox="0 0 16.933 16.933"
   id="svg17"
   sodipodi:docname="terminal.svg"
   inkscape:version="">
  <metadata
     id="metadata21">
    <rdf:RDF>
      <cc:Work
         rdf:about="">
        <dc:format>image/svg+xml</dc:format>
        <dc:type
           rdf:resource="http://purl.org/dc/dcmitype/StillImage" />
        <dc:title></dc:title>
      </cc:Work>
    </rdf:RDF>
  </metadata>
  <sodipodi:namedview
     pagecolor="#ffffff"
     bordercolor="#666666"
     borderopacity="1"
     objecttolerance="10"
     gridtolerance="10"
     guidetolerance="10"
     inkscape:pageopacity="0"
     inkscape:pageshadow="2"
     inkscape:window-width="1866"
     inkscape:window-height="1974"
     id="namedview19"
     showgrid="false"
     inkscape:zoom="3.6875"
     inkscape:cx="32.542373"
     inkscape:cy="32"
     inkscape:window-x="38"
     inkscape:window-y="22"
     inkscape:window-maximized="0"
     inkscape:current-layer="svg17" />
  <defs
     id="defs7">
    <linearGradient
       id="a"
       x1="47"
       x2="59.998"
       y1="41"
       y2="53.978"
       gradientTransform="translate(-.004 .27) scale(.26458)"
       gradientUnits="userSpaceOnUse">
      <stop
         offset="0"
         id="stop2" />
      <stop
         stop-color="#242424"
         stop-opacity="0"
         offset="1"
         id="stop4" />
    </linearGradient>
  </defs>
  <rect
     x="1.058"
     y="2.381"
     width="14.816"
     height="12.171"
     rx="1.372"
     ry="1.323"
     fill="#72787e"
     id="rect9" />
  <rect
     x="5.292"
     y="8.99"
     width="4.233"
     height=".529"
     ry=".265"
     fill="#fff"
     paint-order="stroke markers fill"
     id="rect11" />
  <path
     d="M3.973 4.19a.264.264 0 0 0-.262.13.264.264 0 0 0 .097.362l2.842 1.64-2.842 1.641a.264.264 0 0 0-.097.362c.074.127.235.17.362.097L7.28 6.57a.26.26 0 0 0 .127-.225c.002-.008.001-.015.002-.022 0-.008 0-.015-.002-.023a.26.26 0 0 0-.127-.224L4.073 4.223a.266.266 0 0 0-.1-.033z"
     fill="#fff"
     paint-order="stroke markers fill"
     id="path13" />
  <path
     d="M15.872 9.215l-5.337 5.337h4.767c.316 0 .57-.238.57-.535V9.215z"
     fill="url(#a)"
     opacity=".15"
     id="path15" />
</svg>
