<?xml version="1.0" encoding="UTF-8" standalone="no"?>
<svg
   xmlns:dc="http://purl.org/dc/elements/1.1/"
   xmlns:cc="http://creativecommons.org/ns#"
   xmlns:rdf="http://www.w3.org/1999/02/22-rdf-syntax-ns#"
   xmlns:svg="http://www.w3.org/2000/svg"
   xmlns="http://www.w3.org/2000/svg"
   xmlns:sodipodi="http://sodipodi.sourceforge.net/DTD/sodipodi-0.dtd"
   xmlns:inkscape="http://www.inkscape.org/namespaces/inkscape"
   width="128"
   height="128"
   version="1.1"
   id="svg6"
   sodipodi:docname="firefox-symbolic3.svg"
   viewBox="0 64 16 16"
   inkscape:version="">
  <metadata
     id="metadata12">
    <rdf:RDF>
      <cc:Work
         rdf:about="">
        <dc:format>image/svg+xml</dc:format>
        <dc:type
           rdf:resource="http://purl.org/dc/dcmitype/StillImage" />
        <dc:title></dc:title>
      </cc:Work>
    </rdf:RDF>
  </metadata>
  <defs
     id="defs10" />
  <sodipodi:namedview
     pagecolor="#ffffff"
     bordercolor="#666666"
     borderopacity="1"
     objecttolerance="10"
     gridtolerance="10"
     guidetolerance="10"
     inkscape:pageopacity="0"
     inkscape:pageshadow="2"
     inkscape:window-width="3760"
     inkscape:window-height="1974"
     id="namedview8"
     showgrid="false"
     showguides="false"
     scale-x="0.5"
     viewbox-x="-0.5"
     viewbox-y="48"
     viewbox-height="64"
     inkscape:zoom="3.6875"
     inkscape:cx="-9.1539256"
     inkscape:cy="9.7098269"
     inkscape:window-x="72"
     inkscape:window-y="0"
     inkscape:window-maximized="0"
     inkscape:current-layer="svg6"
     viewbox-width="16" />
  <path
     d="m 7.5,64.762 c -1.7,0 -3.266,0.569 -4.521,1.531 0.033,0.084 0.068,0.187 0.101,0.27 a 0.944,0.944 0 0 1 0.037,-0.004 h 0.004 l 0.02,-0.002 h 0.002 l 0.035,-0.002 c 0.024,-0.003 0.043,-0.004 0.05,-0.004 l 0.061,-0.004 a 0.889,0.889 0 0 1 0.04,-0.002 h 0.2 c 0.11,0.003 0.219,0.011 0.328,0.021 0.104,0.01 0.205,0.022 0.301,0.038 a 0.5,0.5 0 0 1 0.004,0.001 l 0.024,0.002 a 0.5,0.5 0 0 1 0.005,0.002 l 0.041,0.006 a 0.5,0.5 0 0 1 0.006,0.002 0.385,0.385 0 0 1 0.037,0.008 0.5,0.5 0 0 1 0.006,0 l 0.041,0.01 -0.002,-0.002 0.053,0.012 h 0.004 a 0.109,0.109 0 0 1 0.025,0.007 0.5,0.5 0 0 0 0.002,0 c 0.021,0.005 0.05,0.011 0.082,0.02 h 0.002 c 0.026,0.007 -0.002,0.003 0.02,0.008 0.143,-0.15 0.387,-0.433 0.715,-0.707 0.185,-0.156 0.387,-0.302 0.636,-0.397 0.25,-0.094 0.59,-0.126 0.883,0.037 a 0.5,0.5 0 0 1 0.1,0.803 c -0.062,0.057 -0.371,0.478 -0.553,0.889 -0.176,0.398 -0.204,0.794 -0.184,0.873 0.077,0.133 0.098,0.164 0.25,0.177 0.42,0.038 0.586,0.02 0.856,0.2 0.126,0.084 0.22,0.284 0.244,0.386 0.11,0.277 0.048,0.39 0.014,0.534 A 1.27,1.27 0 0 1 7.285,69.91 c -0.135,0.2 -0.219,0.304 -0.459,0.447 -0.08,0.049 -0.113,0.06 -0.193,0.098 -0.08,0.039 -0.179,0.085 -0.28,0.13 v -10e-4 c -0.218,0.1 -0.469,0.175 -0.665,0.268 -0.03,0.014 -0.036,0.02 -0.061,0.035 0.032,0.05 0.026,0.038 0.072,0.107 0.06,0.09 0.134,0.194 0.174,0.373 0.04,0.18 -0.02,0.474 -0.182,0.635 A 0.5,0.5 0 0 1 5.053,72.059 2.44,2.44 0 0 0 4.648,71.875 C 4.624,71.867 4.615,71.871 4.59,71.863 a 0.76,0.76 0 0 0 0.166,0.28 c 0.259,0.282 0.755,0.571 1.24,0.689 a 0.5,0.5 0 0 1 0.018,0.006 c 0.037,0.01 0.061,0.013 0.172,-0.014 0.11,-0.027 0.287,-0.09 0.527,-0.164 0.488,-0.15 0.798,-0.174 1.066,-0.174 0.275,0 0.516,0.044 0.754,0.141 0.191,0.078 0.355,0.188 0.504,0.312 0.15,0.125 0.282,0.246 0.383,0.457 a 0.5,0.5 0 0 1 0.047,0.174 0.829,0.829 0 0 1 -0.303,0.664 c -0.17,0.128 -0.331,0.17 -0.484,0.207 -0.306,0.074 -0.615,0.1 -0.823,0.155 a 6.715,6.715 0 0 0 -0.545,0.396 c -0.254,0.2 -0.615,0.41 -1.056,0.457 0.448,0.073 1.045,0.053 1.598,0.051 0.762,-0.004 1.314,-0.253 1.755,-0.695 0.44,-0.44 0.761,-1.1 0.936,-1.922 0.009,-0.076 0.02,-0.235 0.02,-0.389 0,-0.548 -0.086,-0.94 -0.311,-1.433 C 10.084,70.686 9.82,70.188 9.424,69.75 A 0.5,0.5 0 0 1 9.398,69.719 4.566,4.566 0 0 1 8.539,67.766 4.086,4.086 0 0 1 8.545,66.471 c 0.052,-0.306 0.137,-0.644 0.232,-0.907 a 0.5,0.5 0 0 0 0.002,0 c 0.077,-0.21 0.164,-0.42 0.25,-0.63 A 7.435,7.435 0 0 0 7.5,64.762 Z m 2.537,0.455 c -0.11,0.21 -0.221,0.423 -0.318,0.69 a 5.027,5.027 0 0 0 -0.188,0.732 7.101,7.101 0 0 0 -0.008,0.949 c 0.101,0.557 0.333,1.081 0.67,1.523 l -0.027,-0.03 c 0.499,0.55 0.806,1.144 0.998,1.565 0.274,0.601 0.4,1.184 0.4,1.848 0,0.201 -0.01,0.394 -0.03,0.55 a 0.5,0.5 0 0 1 -0.007,0.036 c -0.203,0.966 -0.592,1.811 -1.209,2.43 C 9.701,76.128 8.85,76.495 7.858,76.5 7.325,76.502 6.638,76.553 5.992,76.43 5.669,76.368 5.346,76.261 5.066,76.043 A 1.55,1.55 0 0 1 4.508,75.086 0.5,0.5 0 0 1 5,74.5 h 1.139 c 0.113,0 0.31,-0.101 0.552,-0.293 0.243,-0.191 0.475,-0.464 0.914,-0.578 0.186,-0.048 0.314,-0.065 0.473,-0.09 -0.09,-0.034 -0.125,-0.053 -0.299,-0.053 -0.235,0 -0.352,0 -0.771,0.13 -0.213,0.065 -0.388,0.13 -0.586,0.179 A 1.352,1.352 0 0 1 5.75,73.799 C 5.079,73.633 4.452,73.291 4.02,72.82 3.802,72.584 3.627,72.306 3.563,71.98 3.498,71.655 3.572,71.279 3.789,70.984 a 0.5,0.5 0 0 1 0.379,-0.2 c 0.132,-0.007 0.238,0.042 0.357,0.064 a 0.5,0.5 0 0 1 0,-0.01 c 0,-0.28 0.16,-0.494 0.301,-0.62 0.142,-0.125 0.29,-0.203 0.434,-0.27 0.29,-0.137 0.6,-0.236 0.678,-0.272 l 0.263,-0.123 c 0.074,-0.035 0.157,-0.08 0.113,-0.055 -0.07,0.042 0.094,-0.104 0.127,-0.13 -0.072,-0.018 -0.004,0 -0.177,-0.016 A 1.397,1.397 0 0 1 5.204,68.645 0.5,0.5 0 0 1 5.18,68.595 C 4.98,68.128 5.173,67.694 5.332,67.27 a 7.31,7.31 0 0 1 -0.219,0.218 l -0.01,0.01 c -0.016,0.018 -0.032,0.04 -0.095,0.09 a 0.722,0.722 0 0 1 -0.344,0.13 C 4.432,67.73 4.387,67.681 4.229,67.638 L 4.176,67.625 4.158,67.621 a 0.5,0.5 0 0 1 -0.004,0 L 4.119,67.613 a 0.5,0.5 0 0 0 -0.002,0 L 4.097,67.609 A 0.653,0.653 0 0 1 4.059,67.602 L 4.025,67.596 3.996,67.592 A 3.64,3.64 0 0 0 3.504,67.545 H 3.355 A 0.5,0.5 0 0 1 3.34,67.547 c -0.02,0 -0.04,0 -0.063,0.002 a 0.5,0.5 0 0 1 -0.004,0 c -0.018,0 -0.035,0.004 -0.054,0.006 a 0.5,0.5 0 0 1 -0.01,0 L 3.164,67.561 A 0.5,0.5 0 0 1 3.143,67.563 0.5,0.5 0 0 1 3.061,67.57 0.212,0.212 0 0 0 2.984,67.594 0.5,0.5 0 0 1 2.34,67.393 2.78,2.78 0 0 1 2.172,67.021 c -0.11,0.113 -0.224,0.223 -0.326,0.342 -0.09,2.99 0.609,6.593 2.605,8.705 1.967,2.081 5.22,2.704 6.627,1.666 1.496,-1.104 0.694,-7.2 0.133,-11.13 A 31.75,31.75 0 0 1 10.383,65.348 C 10.269,65.3 10.153,65.259 10.037,65.217 Z"
     id="path2"
     inkscape:connector-curvature="0"
     style="opacity:0.3;fill:#555555" />
  <path
     d="m 10.135,64 -0.09,0.113 -0.045,0.06 c -0.347,0.467 -0.545,0.995 -0.752,1.563 -0.079,0.218 -0.163,0.546 -0.21,0.82 -0.046,0.273 -0.05,0.882 -0.007,1.121 0.115,0.635 0.378,1.232 0.764,1.738 0.448,0.495 0.734,1.04 0.915,1.438 0.249,0.548 0.354,1.035 0.354,1.641 0,0.183 -0.01,0.37 -0.025,0.482 C 10.66,74.77 9.61,75.99 7.855,76 6.745,76.004 5.201,76.166 5,75 H 6.138 C 6.771,75 7.278,74.23 7.731,74.112 8.269,73.972 9,74 8.968,73.612 8.884,73.436 8.591,73.191 8.344,73.09 A 1.244,1.244 0 0 0 7.779,72.986 c -0.252,0 -0.465,0.012 -0.918,0.151 -0.453,0.14 -0.704,0.26 -0.983,0.181 -1.162,-0.282 -2.251,-1.27 -1.686,-2.036 0.34,-0.016 0.93,0.217 1.145,0.366 0.206,-0.206 -0.24,-0.522 -0.312,-0.811 0,-0.36 0.823,-0.57 1.12,-0.707 C 6.341,70.04 6.532,69.95 6.57,69.927 6.65,69.879 6.807,69.725 6.87,69.63 6.968,69.486 7.032,69.219 6.992,69.123 6.943,69.002 7.112,68.927 6.31,68.854 6.007,68.827 5.8,68.686 5.64,68.4 5.36,67.744 6.146,66.38 6.5,66.05 5.936,65.738 5.094,66.816 4.759,67.136 4.651,67.244 4.684,67.242 4.358,67.156 4.336,67.149 4.314,67.144 4.291,67.139 L 4.266,67.133 4.219,67.123 A 1.959,1.959 0 0 0 4.187,67.116 L 4.148,67.109 4.108,67.102 4.078,67.098 A 4.158,4.158 0 0 0 3.516,67.046 L 3.431,67.045 A 2.98,2.98 0 0 0 3.169,67.056 H 3.163 l -0.07,0.01 -0.031,0.004 a 0.68,0.68 0 0 0 -0.29,0.07 C 2.488,66.656 2.218,65.485 2,65 1.487,65.273 1.337,67.139 1.25,67.596 a 5.453,5.453 0 0 0 -0.072,0.66 c 0,0.018 -0.004,0.025 -0.005,0.038 A 7.668,7.668 0 0 0 0,72.38 C 0,76.589 3.358,80 7.5,80 11.642,80 15,76.589 15,72.381 15,69.714 13.824,68.344 12.66,66.472 l -0.003,-0.003 a 5.252,5.252 0 0 1 -0.44,-0.83 c -0.019,-0.062 -0.041,-0.114 -0.05,-0.114 -0.003,0 -0.006,0.003 -0.011,0.007 -0.151,0.186 -0.224,0.909 -0.305,1.135 -0.586,-0.824 -1.312,-1.643 -1.694,-2.555 z"
     id="path4"
     inkscape:connector-curvature="0"
     style="fill:#555555" />
</svg>
